# xmcd
#
# Track frame offsets:
#	150
#	11369
#	20652
#	31209
#	42631
#	54167
#	63938
#	72847
#	84317
#	93087
#	102800
#	112460
#	121788
#	131400
#	141851
#	151486
#	160685
#	170193
#	181820
#	190934
#
# Disc length: 2661 seconds
# Revision: 0
# Processed by: cddbd v1.5.2PL0 Copyright (c) Steve Scherf et al.
# Submitted via: dBpowerAMP V12.0
#
DISCID=050a6314
DTITLE=Various Artist - Still Alive And Rockin'
DYEAR=1952
DGENRE=Country
TTITLE0=Johnnie Ray - Yes Tonight Josephine
TTITLE1=Roy Orbinson - Go Go Go (Down The Line)
TTITLE2=Perez Prado - Patricia
TTITLE3=Johnny Horton - The Battle Of New Orleans
TTITLE4=Perry Como - Round And Round
TTITLE5=Lavern Baker - Jim Dandy
TTITLE6=Elvis Presley - All Shook Up
TTITLE7=Johnny Cash - I Walk The Line
TTITLE8=Ricky Nelson - It's Late
TTITLE9=Buddy Holly - Heartbeat
TTITLE10=Gene Vincent - Pistol Packin' Mama
TTITLE11=Jim Reeves - Billy Bayou
TTITLE12=Bobby Darin - Splish Splash
TTITLE13=Bill Haley and Comets - Rock-A-Beatin' Boogie
TTITLE14=Ruth Brown - Lucky Lips
TTITLE15=Johnny Burnetta R&R Trio - Honey Hush 
TTITLE16=Guy Mitchell - Rock A Billy
TTITLE17=Clyde McPhatter - A Lovers's Question
TTITLE18=Ritchie Valens - Come On Let's Go
TTITLE19=Eddie Cochran - C'mon Everybody
EXTD=
EXTT0=
EXTT1=
EXTT2=
EXTT3=
EXTT4=
EXTT5=
EXTT6=
EXTT7=
EXTT8=
EXTT9=
EXTT10=
EXTT11=
EXTT12=
EXTT13=
EXTT14=
EXTT15=
EXTT16=
EXTT17=
EXTT18=
EXTT19=
PLAYORDER=
